<svg width="36" height="33" viewBox="0 0 36 33" fill="none" xmlns="http://www.w3.org/2000/svg">
<g id="Frame 35423">
<path id="Vector" d="M29.5983 10.8716C29.2148 10.7411 28.8285 10.6194 28.4396 10.5068C28.5041 10.2451 28.5636 9.98193 28.6181 9.71726C29.4955 5.46306 28.9218 2.03578 26.9636 0.907562C25.0887 -0.175052 22.0138 0.953169 18.912 3.65073C18.607 3.9169 18.3082 4.19104 18.0157 4.47316C17.8208 4.28575 17.6208 4.10232 17.4158 3.92288C14.1647 1.0384 10.906 -0.176548 8.95013 0.955412C7.0752 2.04027 6.51798 5.26194 7.3077 9.29408C7.38669 9.69283 7.47544 10.0898 7.57393 10.4851C7.1127 10.6159 6.66722 10.7558 6.24124 10.9038C2.4344 12.2309 0 14.3116 0 16.4694C0 18.6989 2.61289 20.9344 6.58248 22.2899C6.90446 22.3991 7.22945 22.5005 7.55743 22.5942C7.45094 23.0174 7.35669 23.4453 7.2747 23.878C6.52473 27.8406 7.1097 30.986 8.98088 32.0641C10.9135 33.1774 14.1557 32.0335 17.316 29.2746C17.566 29.0563 17.816 28.8257 18.066 28.583C18.382 28.8875 18.707 29.1831 19.041 29.4697C22.1008 32.1 25.1225 33.1624 26.9906 32.0813C28.9218 30.9643 29.5495 27.5849 28.7343 23.4735C28.6718 23.1595 28.5998 22.839 28.5183 22.512C28.7463 22.4447 28.9695 22.3752 29.188 22.3034C33.3129 20.9374 36 18.7288 36 16.4716C35.9985 14.3034 33.4861 12.2092 29.5983 10.8716ZM19.9237 4.80961C22.5808 2.49859 25.0647 1.58644 26.1972 2.2384C27.4024 2.93298 27.8711 5.73372 27.1136 9.40698C27.0636 9.64623 27.0096 9.88473 26.9516 10.1225C25.3659 9.76292 23.7579 9.50915 22.1383 9.36287C21.211 8.03119 20.1945 6.76351 19.0957 5.56848C19.3647 5.3083 19.6402 5.05534 19.9222 4.80961H19.9237ZM10.6293 18.3131C10.9548 18.9412 11.295 19.5615 11.65 20.1741C12.0115 20.7991 12.3882 21.4149 12.7802 22.0215C11.6658 21.9007 10.5584 21.7228 9.46236 21.4884C9.78034 20.4626 10.1718 19.3972 10.6293 18.3131ZM10.6293 14.6997C10.1793 13.6387 9.79834 12.595 9.4856 11.5872C10.5131 11.3576 11.608 11.17 12.7495 11.0279C12.367 11.623 11.999 12.2269 11.6455 12.8395C11.292 13.4521 10.9525 14.0721 10.6271 14.6997H10.6293ZM11.4468 16.5068C11.9208 15.5214 12.4312 14.5549 12.9782 13.6073C13.5247 12.6603 14.1064 11.7349 14.7234 10.8313C15.7943 10.7505 16.8923 10.7079 18.0015 10.7079C19.1107 10.7079 20.2154 10.7505 21.2856 10.832C21.8961 11.7337 22.4743 12.6558 23.0203 13.5984C23.5663 14.5409 24.0835 15.5029 24.572 16.4843C24.09 17.4732 23.574 18.4437 23.024 19.3957C22.4786 20.3428 21.9036 21.2709 21.2991 22.18C20.2304 22.2548 19.1242 22.2959 17.9993 22.2959C16.8743 22.2959 15.7891 22.2608 14.7399 22.1927C14.1184 21.2861 13.5319 20.3567 12.9805 19.4047C12.429 18.4527 11.917 17.4867 11.4445 16.5068H11.4468ZM24.3552 20.1636C24.7177 19.5365 25.0657 18.9013 25.3992 18.2578C25.8563 19.2911 26.2599 20.3472 26.6081 21.4219C25.4992 21.6708 24.378 21.8618 23.249 21.9939C23.63 21.3912 23.9987 20.7812 24.3552 20.1636ZM25.3842 14.7004C25.0522 14.0699 24.707 13.4468 24.3485 12.8313C23.9985 12.2242 23.6338 11.6245 23.2543 11.0324C24.4025 11.1774 25.5042 11.3703 26.5369 11.6058C26.2049 12.656 25.8201 13.6888 25.3842 14.7004ZM18.0165 6.6668C18.7654 7.48257 19.4725 8.33549 20.1352 9.22231C18.7177 9.15502 17.2993 9.15502 15.8798 9.22231C16.5796 8.29969 17.2958 7.44362 18.0165 6.6668ZM9.7241 2.28401C10.9285 1.58719 13.5917 2.58307 16.3988 5.07054C16.5781 5.22979 16.7588 5.39652 16.9388 5.56923C15.8344 6.76408 14.8107 8.03066 13.8744 9.36062C12.2584 9.50578 10.6536 9.75552 9.07012 10.1083C8.97863 9.74143 8.89613 9.37209 8.82263 9.00025C8.14391 5.54381 8.59314 2.93821 9.7241 2.28401ZM7.96842 21.1139C7.66843 21.0286 7.37219 20.9362 7.0797 20.8365C5.32478 20.2383 3.87509 19.4578 2.87988 18.6077C1.98892 17.8458 1.53744 17.0855 1.53744 16.4694C1.53744 15.1602 3.49185 13.49 6.75122 12.3572C7.1607 12.2152 7.57368 12.0854 7.99017 11.9677C8.47423 13.5186 9.06048 15.0359 9.74509 16.5098C9.05233 18.004 8.45882 19.542 7.96842 21.1139ZM16.3028 28.1172C14.9056 29.3374 13.5062 30.2024 12.2725 30.6383C11.164 31.0294 10.2813 31.0406 9.74809 30.7333C8.61264 30.0791 8.14016 27.5527 8.78438 24.1643C8.86088 23.7656 8.94838 23.3668 9.04687 22.9681C10.6462 23.3115 12.2671 23.5461 13.8984 23.6701C14.8438 25.007 15.876 26.2808 16.9883 27.4832C16.7648 27.7023 16.5361 27.9131 16.3028 28.1172ZM18.0592 26.3811C17.3303 25.5953 16.6028 24.7258 15.8933 23.7912C16.5828 23.8182 17.2848 23.8316 17.9993 23.8316C18.7327 23.8316 19.4587 23.8159 20.1742 23.7838C19.5139 24.6848 18.808 25.5517 18.0592 26.3811ZM27.3979 28.5187C27.1834 29.6731 26.7521 30.4432 26.2189 30.7512C25.0842 31.4077 22.6581 30.5546 20.0422 28.3049C19.7422 28.0477 19.4422 27.7718 19.137 27.4824C20.2276 26.2753 21.2356 24.9964 22.1541 23.6544C23.7944 23.5159 25.4232 23.2648 27.0289 22.903C27.1024 23.1991 27.1674 23.4892 27.2239 23.7733C27.5846 25.5901 27.6363 27.2335 27.3979 28.5187ZM28.7028 20.8447C28.5063 20.9097 28.3038 20.9726 28.0983 21.0339C27.5948 19.4757 26.9857 17.9534 26.2752 16.4776C26.9591 15.0215 27.5443 13.5213 28.0271 11.9872C28.3953 12.0941 28.7531 12.2062 29.0973 12.3251C32.4286 13.4705 34.4611 15.1662 34.4611 16.4694C34.4611 17.86 32.2659 19.6649 28.7028 20.8447Z" fill="black"/>
<path id="Vector_2" d="M17.9468 19.6811C18.5851 19.6832 19.2096 19.4964 19.7413 19.1444C20.273 18.7924 20.688 18.291 20.9337 17.7037C21.1794 17.1165 21.2447 16.4697 21.1215 15.8454C20.9982 15.2211 20.6919 14.6472 20.2413 14.1966C19.7907 13.7459 19.2162 13.4387 18.5903 13.3138C17.9645 13.1889 17.3155 13.2519 16.7256 13.4949C16.1358 13.738 15.6315 14.15 15.2767 14.6789C14.9218 15.2079 14.7324 15.8298 14.7324 16.4661C14.7315 16.8877 14.814 17.3053 14.9751 17.6951C15.1362 18.0849 15.3728 18.4392 15.6713 18.7377C15.9698 19.0363 16.3244 19.2733 16.7149 19.4352C17.1053 19.597 17.5239 19.6806 17.9468 19.6811Z" fill="black"/>
</g>
</svg>
